<svg width="21" height="21" viewBox="0 0 21 21" fill="none" xmlns="http://www.w3.org/2000/svg">
<path d="M9.56667 10.7061L8.98376 13.1213C9.73322 13.2878 12.0232 14.0374 12.3563 12.6632C12.6894 11.2474 10.3161 10.9143 9.56667 10.7061Z" fill="#76B7FF"/>
<path d="M12.3563 12.7047C12.731 11.2889 10.3161 10.9142 9.56667 10.7476L8.98376 13.1211" fill="#76B7FF"/>
<path d="M10.3992 7.41623L9.85791 9.62322C10.4825 9.78979 12.3977 10.4144 12.6892 9.16517C12.9806 7.87428 11.0237 7.58279 10.3992 7.41623Z" fill="#76B7FF"/>
<path d="M12.6892 9.16517C13.0223 7.87428 11.0237 7.58279 10.3992 7.41623L9.85791 9.62322" fill="#76B7FF"/>
<path d="M12.8557 0.878507C7.48462 -0.454016 2.0719 2.83565 0.739533 8.16574C-0.592829 13.5375 2.6548 18.9509 8.02589 20.2834C13.397 21.6159 18.8097 18.3679 20.1421 12.9961C21.4744 7.66605 18.2268 2.25267 12.8557 0.878507ZM14.8542 9.16514C14.7293 10.1229 14.1881 10.6226 13.4386 10.7892C14.4379 11.2888 14.9375 12.08 14.4379 13.4542C13.855 15.1615 12.4393 15.2864 10.5657 14.9533L10.1077 16.7855L9.02516 16.4524L9.48316 14.6618C9.19171 14.5785 8.90025 14.4952 8.6088 14.4536L8.1508 16.2442L7.06825 15.9527L7.52625 14.1205C7.27644 14.0372 7.02662 13.9955 6.73516 13.9123L5.31953 13.5375L5.8608 12.2882L6.65189 12.4964C6.94335 12.5797 7.10989 12.3715 7.15153 12.2466L7.85934 9.37334C7.90098 9.37334 7.94262 9.37334 7.98425 9.41499C7.94262 9.41499 7.90098 9.37334 7.85934 9.37334L8.35898 7.33292C8.35898 7.08307 8.27571 6.79158 7.85934 6.7083L7.06825 6.50009L7.35971 5.33413L8.85862 5.7089C9.0668 5.75055 9.31662 5.83383 9.56643 5.87547L10.0244 4.08489L11.107 4.37638L10.649 6.12532C10.9404 6.2086 11.2319 6.25024 11.5233 6.33353L11.9397 4.58459L13.0222 4.87608L12.5642 6.66666C14.0215 7.12471 15.0624 7.83261 14.8542 9.16514Z" fill="#76B7FF"/>
<path d="M0.739533 8.16561C-0.592829 13.5374 2.6548 18.9507 8.02589 20.2833C13.397 21.6158 18.8097 18.3677 20.1421 12.996C21.4744 7.62428 18.2268 2.2109 12.8557 0.878376L0.739533 8.16561ZM14.8542 9.16501C14.7293 10.1228 14.1881 10.6225 13.4386 10.789C14.4379 11.2887 14.9375 12.0799 14.4379 13.4541C13.855 15.1614 12.4393 15.2863 10.5657 14.9532L10.1077 16.7854L9.02516 16.4522L9.48316 14.6617C9.19171 14.5784 8.90025 14.4951 8.6088 14.4535L8.1508 16.244L7.06825 15.9525L7.52625 14.1203C7.27644 14.037 7.02662 13.9954 6.73516 13.9121L5.31953 13.5374L5.8608 12.2881L6.65189 12.4963C6.94335 12.5796 7.10989 12.3714 7.15153 12.2465L7.85934 9.37321C7.90098 9.37321 7.94262 9.37321 7.98425 9.41486C7.94262 9.41486 7.90098 9.37321 7.85934 9.37321L8.35898 7.33279C8.35898 7.08294 8.27571 6.79145 7.85934 6.70817L7.06825 6.49996L7.35971 5.334L8.85862 5.70877C9.0668 5.75042 9.31662 5.8337 9.56643 5.87534L10.0244 4.08476L11.107 4.37625L10.649 6.12519C10.9404 6.20847 11.2319 6.25011 11.5233 6.33339L11.9397 4.58446L13.0222 4.87595L12.5642 6.66653C14.0215 7.12458 15.0624 7.83248 14.8542 9.16501Z" fill="#76B7FF"/>
<path d="M20.0589 13.3708L14.6462 7.95747C14.8544 8.2906 14.9793 8.70701 14.896 9.20671C14.7711 10.1645 14.2298 10.6642 13.4804 10.8307C14.4797 11.3304 14.9793 12.1216 14.4797 13.4958C13.8968 15.2031 12.4811 15.328 10.6075 14.9949L10.1495 16.8271L9.0253 16.4523L9.4833 14.6617C9.19185 14.5784 8.90039 14.4952 8.60894 14.4535L8.15094 16.2441L7.90112 16.1608L12.148 20.4082C15.812 19.7836 18.9764 17.1186 20.0589 13.3708Z" fill="#76B7FF"/>
<path d="M5.31934 13.5792L7.19297 15.453L7.52606 14.1205C7.27624 14.0372 7.02642 13.9956 6.73497 13.9123L5.31934 13.5792Z" fill="#76B7FF"/>
<path d="M12.8138 6.12525L12.6472 6.66659C13.1469 6.83316 13.6049 7.04136 13.9796 7.29121L12.8138 6.12525Z" fill="#76B7FF"/>
<path d="M11.1484 4.37643L10.6904 6.12537C10.9819 6.20865 11.2733 6.25029 11.5648 6.33357L11.8562 5.08433L11.1484 4.37643Z" fill="#76B7FF"/>
<path d="M13.1052 4.83448L12.6472 6.62506L12.6889 6.6667C13.9379 7.08312 14.8956 7.74938 14.8956 8.87369L19.8919 13.8707C19.9752 13.5792 20.0585 13.2877 20.1418 13.0378C20.225 12.7047 20.2667 12.4132 20.3083 12.0801L13.1052 4.83448Z" fill="#76B7FF"/>
<path d="M14.0634 19.9087L10.2745 16.1194L10.1079 16.744L9.0254 16.4525L9.35849 15.1616L8.60904 14.4121L8.15104 16.2026L7.06849 15.9112V15.8695L7.02686 15.9112L11.5652 20.4501C12.4396 20.4084 13.2723 20.2002 14.0634 19.9087Z" fill="#76B7FF"/>
<path d="M15.1039 19.4087L10.6072 14.9115C10.6072 14.9115 10.6072 14.9115 10.5656 14.9115L10.1076 16.7437L9.06665 16.4938L12.8556 20.2832C13.6466 20.075 14.3961 19.7835 15.1039 19.4087Z" fill="#76B7FF"/>
</svg>
