<svg width="44" height="35" viewBox="0 0 44 35" fill="none" xmlns="http://www.w3.org/2000/svg">
<g clip-path="url(#clip0_2112_778)">
<path d="M23.2257 2.33154L41.7272 7.51165L23.2257 12.7302L5.28955 7.53047L23.2257 2.33154Z" stroke="#457EFF" stroke-width="3.00074" stroke-linecap="round" stroke-linejoin="round"/>
<path d="M5.31818 7.54236C4.56781 7.70104 3.89119 8.0995 3.39289 8.67618C2.89456 9.25285 2.60226 9.97563 2.56117 10.7329C2.52006 11.4901 2.73244 12.2397 3.16546 12.8657C3.59849 13.4918 4.22809 13.9595 4.95699 14.1966L23.2266 19.463L41.7272 14.2444" stroke="#457EFF" stroke-width="3.00074" stroke-linecap="round" stroke-linejoin="round"/>
<path d="M5.31795 14.3298C4.5679 14.4888 3.89166 14.8873 3.39364 15.4639C2.89559 16.0405 2.6035 16.763 2.56239 17.52C2.5213 18.277 2.73351 19.0263 3.16625 19.6522C3.59899 20.2782 4.22821 20.7459 4.95676 20.9832L23.2263 26.2503L41.727 21.0318" stroke="#457EFF" stroke-width="3.00074" stroke-linecap="round" stroke-linejoin="round"/>
<path d="M5.31795 21.191C4.5679 21.3498 3.89166 21.7484 3.39364 22.325C2.89559 22.9015 2.6035 23.6241 2.56239 24.3812C2.5213 25.1381 2.73351 25.8873 3.16625 26.5133C3.59899 27.1393 4.22821 27.6071 4.95676 27.8443L23.2263 33.1107L41.727 27.8929" stroke="#457EFF" stroke-width="3.00074" stroke-linecap="round" stroke-linejoin="round"/>
</g>
<defs>
<clipPath id="clip0_2112_778">
<rect width="42.8677" height="34.2942" fill="white" transform="translate(0.514648 0.661987)"/>
</clipPath>
</defs>
</svg>
