<svg width="10" height="16" viewBox="0 0 10 16" fill="none" xmlns="http://www.w3.org/2000/svg">
<path fill-rule="evenodd" clip-rule="evenodd" d="M3.2102 2.13556C3.2102 1.38622 3.2102 0.711556 3.2102 0C4.0587 0 4.8838 0 5.76802 0C5.76802 0.687111 5.76802 1.37378 5.76802 2.11067C6.81982 2.11067 7.79973 2.11067 8.87534 2.11067C8.76816 3.13467 9.11479 4.12133 8.3739 5.07111C6.91551 6.94444 5.56472 8.91778 4.1663 10.8542C4.15439 10.8787 4.15439 10.916 4.14248 11.0164C5.76802 11.0164 7.39356 11.0164 9.03101 11.0164C9.03101 12.0156 9.03101 12.9396 9.03101 13.9267C7.95497 13.9267 6.9036 13.9267 5.79184 13.9267C5.79184 14.6511 5.79184 15.3129 5.79184 16C4.91953 16 4.11867 16 3.24593 16C3.24593 15.3382 3.24593 14.6756 3.24593 13.964C2.15841 13.964 1.13086 13.964 0.0310059 13.964C0.0905494 12.9147 -0.160384 11.9529 0.592841 11.0164C2.08696 9.14267 3.44923 7.15644 4.85956 5.22089C4.8838 5.18356 4.89528 5.13333 4.93144 5.03333C3.42541 5.03333 1.9432 5.03333 0.437178 5.03333C0.437178 4.05956 0.437178 3.13467 0.437178 2.16044C1.34564 2.13556 2.2422 2.13556 3.2102 2.13556Z" fill="#4F46BA"/>
</svg>
