<svg width="206" height="306" viewBox="0 0 206 306" fill="none" xmlns="http://www.w3.org/2000/svg">
<path d="M101.541 138.448L101.929 136.999L101.929 136.999L102.317 135.55L103.766 135.938L103.767 135.938L103.841 135.958C104.148 136.039 104.865 136.221 106.008 136.508L101.541 138.448ZM101.541 138.448L101.542 138.448M101.541 138.448L101.542 138.448M101.542 138.448L97.2335 154.535L96.8454 155.984L98.2943 156.372C98.4695 156.419 99.1054 156.599 100.233 156.922C101.361 157.244 102.271 157.488 102.956 157.65C103.621 157.808 104.594 158.026 105.867 158.306C107.177 158.594 108.323 158.784 109.292 158.863C109.292 158.863 109.293 158.863 109.293 158.863L109.415 157.368M101.542 138.448L115.995 158.654C114.962 158.954 113.778 159.064 112.481 159.027C112.481 159.027 112.481 159.027 112.481 159.027L112.524 157.528M109.415 157.368C110.293 157.44 111.33 157.494 112.524 157.528M109.415 157.368C108.536 157.296 107.461 157.121 106.189 156.841C104.917 156.561 103.954 156.345 103.302 156.191C102.65 156.036 101.764 155.799 100.646 155.479C99.5266 155.159 98.8733 154.974 98.6824 154.923M109.415 157.368L98.6824 154.923M112.524 157.528C113.718 157.562 114.737 157.457 115.577 157.213L112.524 157.528ZM98.6824 154.923L99.0705 153.474L98.6824 154.923ZM109.097 137.273L109.097 137.274C109.995 137.492 111.143 137.855 112.523 138.349L112.524 138.349C113.916 138.848 115.103 139.336 116.072 139.814C117.066 140.305 118.102 140.948 119.179 141.729C120.312 142.55 121.231 143.458 121.875 144.469C122.509 145.463 122.936 146.6 123.181 147.852C123.449 149.209 123.364 150.62 122.978 152.062C122.651 153.285 122.145 154.385 121.444 155.339C120.728 156.314 119.827 157.071 118.757 157.588L109.097 137.273ZM109.097 137.273C108.278 137.075 107.25 136.819 106.008 136.508L109.097 137.273ZM118.172 183.63L118.171 183.63C117.484 184.527 116.696 185.282 115.8 185.878L115.797 185.88C114.874 186.491 113.794 186.922 112.591 187.199M118.172 183.63L115.045 169.011C113.774 168.141 112.561 167.418 111.405 166.846L111.405 166.845C110.245 166.272 108.816 165.701 107.135 165.126C105.477 164.558 104.142 164.137 103.142 163.87C102.173 163.61 100.928 163.296 99.4052 162.93L99.4048 162.93C97.8817 162.563 96.9946 162.345 96.7135 162.27L95.2646 161.882L94.8765 163.331L89.7055 182.638L89.3174 184.087L90.7664 184.475C91.0567 184.553 91.7437 184.747 92.8485 185.062C93.9508 185.377 94.8715 185.635 95.6073 185.832C96.3622 186.034 97.4049 186.281 98.7204 186.573L98.7221 186.573C100.05 186.866 101.214 187.095 102.209 187.255L102.21 187.255C103.219 187.418 104.388 187.551 105.717 187.657L105.718 187.657C107.065 187.762 108.274 187.785 109.331 187.706C110.372 187.629 111.46 187.46 112.591 187.199M118.172 183.63C118.903 182.676 119.423 181.571 119.753 180.338L119.754 180.338C120.176 178.761 120.237 177.213 119.886 175.722C119.561 174.332 119.016 173.084 118.235 171.996L118.234 171.995M118.172 183.63L118.234 171.995M112.591 187.199C112.591 187.199 112.591 187.198 112.592 187.198L112.254 185.737L112.59 187.199C112.59 187.199 112.591 187.199 112.591 187.199ZM118.234 171.995C117.451 170.906 116.369 169.917 115.046 169.011L118.234 171.995ZM127.18 163.375L123.201 164.223L126.778 166.161C130.73 168.302 133.25 170.927 134.53 173.981C135.77 176.943 135.646 180.822 133.803 185.788C132.863 188.288 131.687 190.343 130.297 191.986C128.884 193.652 127.356 194.884 125.716 195.715L125.715 195.716C124.054 196.559 122.082 197.137 119.775 197.423L119.774 197.423C117.436 197.713 115.054 197.749 112.625 197.53L112.625 197.53C110.171 197.31 107.388 196.864 104.268 196.189L102.871 195.887L102.502 197.267L98.9887 210.384L93.0904 208.804L96.542 195.917L96.9301 194.468L95.4811 194.08C92.4374 193.265 90.1338 192.628 88.5634 192.166L87.0888 191.732L86.6912 193.217L83.2241 206.162L77.3234 204.582L80.8363 191.465L81.2244 190.016L79.7754 189.628C79.1003 189.448 78.0833 189.165 76.7193 188.779L76.7172 188.779C75.3498 188.394 74.298 188.102 73.5645 187.906L63.855 185.305L67.1585 178.093L72.2742 179.463C73.4723 179.784 74.6836 179.776 75.7793 179.234C76.8676 178.695 77.6206 177.737 78.1267 176.595L78.174 176.489L78.2043 176.376L84.3539 153.415L83.9389 153.304L83.9591 153.247L84.3693 153.357L88.76 136.964L88.7968 136.826L88.8071 136.685C88.9266 135.046 88.586 133.538 87.6371 132.307C86.7013 131.093 85.3084 130.324 83.6555 129.881L78.7644 128.571L80.4953 122.108L91.1356 125.012L91.1356 125.012L91.1425 125.014C93.5836 125.668 95.453 126.147 96.7429 126.451L98.1593 126.785L98.5357 125.379L102.003 112.434L107.902 114.014L104.512 126.673L104.114 128.158L105.608 128.519C108.748 129.279 111.067 129.859 112.571 130.262L114.02 130.65L114.408 129.201L117.768 116.656L123.667 118.235L120.199 131.181L119.844 132.507L121.134 132.978C124.014 134.029 126.49 135.14 128.569 136.304C130.622 137.454 132.437 138.808 134.015 140.363L134.016 140.364C135.527 141.851 136.564 143.543 137.156 145.455C137.743 147.354 137.855 149.475 137.445 151.853L137.443 151.865C136.891 155.214 135.74 157.766 134.071 159.626C132.409 161.476 130.144 162.743 127.18 163.375ZM115.996 158.654C116.922 158.385 117.843 158.029 118.757 157.588L115.996 158.654Z" stroke="#FDD674" stroke-width="3"/>
<path d="M171.213 262.68V249.177L163.132 243.855L140.463 236.956L163.132 257.456L171.213 262.68Z" fill="#F9896B"/>
<path d="M16.3344 65.1547L24.7876 63.1763L2.30554 47.8885L6.2624 32.7805L24.7876 38.5359L48.8884 91.7735L16.3344 65.1547Z" fill="#F9896B"/>
<path d="M205.444 0L184.342 1.46799L181.039 20.5519L168.378 26.4239L148.743 78.7211L205.444 0Z" fill="#F9896B"/>
<path d="M0.190796 300.756L65.0095 257.377L35.5792 291.258V297.123L16.0673 305.995L0.190796 300.756Z" fill="#F9896B"/>
</svg>
