<svg width="33" height="32" viewBox="0 0 33 32" fill="none" xmlns="http://www.w3.org/2000/svg">
<rect x="4.31286" y="3.98889" width="24.1354" height="24.1354" rx="5.05343" stroke="#457EFF" stroke-width="1.44384"/>
<path d="M10.7041 10.5466C11.1028 10.5466 11.4261 10.2234 11.426 9.8247C11.426 9.426 11.1028 9.10279 10.7041 9.10279L10.7041 10.5466ZM3.59095 10.5467L10.7041 10.5466L10.7041 9.10279L3.59094 9.10282L3.59095 10.5467Z" fill="#457EFF"/>
<path d="M21.1984 9.82474L28.3116 9.82471" stroke="#457EFF" stroke-width="1.44384" stroke-linecap="round"/>
<path fill-rule="evenodd" clip-rule="evenodd" d="M13.5735 9.00728C13.3912 10.0094 12.352 15.6545 12.1385 16.8056C11.925 17.9567 12.84 18.9885 13.7384 18.9885C14.6368 18.9885 14.7555 18.9885 15.1242 18.9885C15.493 18.9885 16.0419 19.2572 15.8353 20.236C15.6287 21.2147 15.415 22.2215 15.205 23.1725C14.9949 24.1235 16.0475 24.5069 16.5039 23.7655C16.9603 23.0242 20.3679 17.3656 20.76 16.6046C21.1521 15.8436 20.5099 14.6668 19.5431 14.6668C18.5763 14.6668 18.1762 14.6668 17.6691 14.6668C17.162 14.6668 17.0908 14.2911 17.2749 13.5173C17.4589 12.7434 17.6802 11.7312 18.0224 10.2477C18.3646 8.76429 16.9857 7.9585 16.2591 7.9585C15.5325 7.9585 14.7512 7.9585 14.5359 7.9585C14.3205 7.9585 13.7558 8.00514 13.5735 9.00728Z" fill="#457EFF"/>
</svg>
