<svg width="58" height="58" viewBox="0 0 58 58" fill="none" xmlns="http://www.w3.org/2000/svg">
<path d="M0.190918 8.20267C0.190918 3.78439 3.77264 0.202667 8.19092 0.202667H49.1909C53.6092 0.202667 57.1909 3.78439 57.1909 8.20267V49.2027C57.1909 53.6209 53.6092 57.2027 49.1909 57.2027H8.19092C3.77264 57.2027 0.190918 53.6209 0.190918 49.2027V8.20267Z" fill="#3B5998"/>
<path d="M35.7688 57.2025V36.1218H42.8449L43.9043 27.9064H35.7688V22.661C35.7688 20.2824 36.4295 18.6614 39.8405 18.6614L44.1909 18.6595V11.3117C43.4382 11.2115 40.8558 10.9878 37.8516 10.9878C31.5791 10.9878 27.2851 14.8164 27.2851 21.8476V27.9064H20.1909V36.1218H27.2851V57.2025H35.7688Z" fill="white"/>
</svg>
