<svg width="28" height="28" viewBox="0 0 28 28" fill="none" xmlns="http://www.w3.org/2000/svg">
<path d="M13.9506 25.62C10.9897 25.62 8.1501 24.4438 6.05646 22.3501C3.96282 20.2565 2.78662 17.4169 2.78662 14.456C2.78662 11.4952 3.96282 8.6556 6.05646 6.56195C8.1501 4.46831 10.9897 3.29211 13.9506 3.29211C16.9114 3.29211 19.751 4.46831 21.8446 6.56195C23.9383 8.6556 25.1145 11.4952 25.1145 14.456C25.1145 17.4169 23.9383 20.2565 21.8446 22.3501C19.751 24.4438 16.9114 25.62 13.9506 25.62ZM13.9506 27.2148C17.3344 27.2148 20.5796 25.8706 22.9724 23.4779C25.3651 21.0851 26.7093 17.8399 26.7093 14.456C26.7093 11.0722 25.3651 7.82696 22.9724 5.43423C20.5796 3.04149 17.3344 1.69727 13.9506 1.69727C10.5667 1.69727 7.32147 3.04149 4.92873 5.43423C2.536 7.82696 1.19177 11.0722 1.19177 14.456C1.19177 17.8399 2.536 21.0851 4.92873 23.4779C7.32147 25.8706 10.5667 27.2148 13.9506 27.2148V27.2148Z" fill="#457EFF"/>
<path d="M13.4835 7.4505V15.5457H21.5787" stroke="#457EFF" stroke-width="1.55677"/>
</svg>
