<svg width="49" height="48" viewBox="0 0 49 48" fill="none" xmlns="http://www.w3.org/2000/svg">
<rect x="7.81836" y="7" width="34" height="34" rx="10" fill="white"/>
<path fill-rule="evenodd" clip-rule="evenodd" d="M31.2048 26.8144C31.2048 27.5297 30.6227 28.1114 29.9078 28.1114C29.193 28.1114 28.6108 27.5297 28.6108 26.8144V24.7127H31.2048V26.8144ZM18.0093 22.8957V20.7935C18.0093 20.0787 18.591 19.4965 19.3063 19.4965C20.0211 19.4965 20.6028 20.0787 20.6028 20.7935V22.8957H18.0093ZM28.6108 22.8957H22.2168V20.7935C22.2168 20.7205 22.2127 20.648 22.2072 20.5759C22.9335 19.4017 25.1351 19.0645 25.9613 19.0353L25.9339 18.2288L25.9074 17.4227C25.7715 17.4268 23.1246 17.5317 21.5293 18.9181C20.9951 18.2858 20.1968 17.883 19.3063 17.883C17.7009 17.883 16.3953 19.1891 16.3953 20.7935V24.7127H26.9973V26.8144C26.9973 26.8883 27.0009 26.9608 27.0064 27.0325C26.2801 28.2062 24.079 28.5434 23.2524 28.573L23.2802 29.3796L23.3057 30.1857C23.4426 30.1811 26.089 30.0767 27.6848 28.6903C28.219 29.3226 29.0173 29.7249 29.9078 29.7249C31.5132 29.7249 32.8183 28.4197 32.8183 26.8144V22.8957H28.6108Z" fill="#4F46BA"/>
<rect x="1.81836" y="1" width="46" height="46" rx="12" stroke="white" stroke-width="2"/>
</svg>
