<svg width="29" height="29" viewBox="0 0 29 29" fill="none" xmlns="http://www.w3.org/2000/svg">
<path d="M14.9634 13.5975C15.3899 13.5975 15.7369 13.2506 15.7369 12.8241C15.7369 12.3976 15.3899 12.0506 14.9634 12.0506H13.8459V13.5975H14.9634Z" fill="white"/>
<path d="M13.8459 15.2386V17.1203H15.3847C15.9035 17.1203 16.3256 16.6983 16.3256 16.1795C16.3256 15.6607 15.9035 15.2386 15.3847 15.2386H13.8459Z" fill="white"/>
<path d="M11.2208 18.7613V17.1203H12.2053V12.0507H11.2208V10.4097H13.6083V9.01425H9.84531L8.86011 9.99951V19.1646L9.84531 20.1499H13.6083V18.7613H11.2208Z" fill="white"/>
<path d="M15.2488 9.01425V10.4271C16.4459 10.5689 17.3777 11.5894 17.3777 12.8241C17.3777 13.314 17.2307 13.7699 16.979 14.151C17.5796 14.6241 17.9664 15.3572 17.9664 16.1794C17.9664 17.603 16.8082 18.7613 15.3845 18.7613H15.2488V20.1499H19.01L19.9952 19.1646V9.99951L19.01 9.01431H15.2488V9.01425Z" fill="white"/>
<path d="M28.4274 10.9242V9.28319H25.0066V6.72284L22.2867 4.00299H19.7264V0.582153H18.0854V4.00299H15.2479V0.582153H13.6069V4.00299H10.7695V0.582153H9.12847V4.00299H6.56812L3.84827 6.72284V9.28319H0.42749V10.9242H3.84833V13.7617H0.42749V15.4027H3.84833V18.2401H0.42749V19.8811H3.84833V22.4415L6.56818 25.1613H9.12853V28.5822H10.7695V25.1613H13.607V28.5822H15.248V25.1613H18.0854V28.5822H19.7265V25.1613H22.2868L25.0067 22.4415V19.8811H28.4275V18.2401H25.0067V15.4026H28.4275V13.7616H25.0067V10.9241H28.4274V10.9242ZM21.6363 19.8444L19.6898 21.7909H9.16512L7.21867 19.8444V9.31978L9.16512 7.37328H19.6898L21.6362 9.31978V19.8444H21.6363Z" fill="white"/>
<rect x="10.5918" y="9.01428" width="8.1385" height="11.1356" fill="white"/>
<path d="M17.2121 13.5477C17.1956 13.5187 17.1718 13.4946 17.143 13.4779C17.1142 13.4611 17.0815 13.4522 17.0482 13.4522H14.5806L14.9943 10.2914C14.9988 10.2491 14.9888 10.2065 14.9661 10.1705C14.9434 10.1345 14.9093 10.1073 14.8692 10.093C14.8291 10.0788 14.7854 10.0785 14.7451 10.0922C14.7048 10.1058 14.6703 10.1326 14.6471 10.1683L11.6463 15.4256C11.6288 15.4541 11.6191 15.4868 11.6184 15.5203C11.6178 15.5538 11.626 15.5869 11.6424 15.6161C11.6587 15.6454 11.6826 15.6697 11.7114 15.6867C11.7403 15.7037 11.7732 15.7126 11.8067 15.7126H14.2374L13.9096 18.8782C13.9064 18.9204 13.9173 18.9624 13.9407 18.9976C13.9642 19.0328 13.9987 19.0592 14.0388 19.0725C14.0789 19.0858 14.1224 19.0853 14.1622 19.0711C14.202 19.0569 14.2359 19.0298 14.2586 18.9941L17.2098 13.7374C17.2269 13.7088 17.2361 13.6762 17.2365 13.6429C17.2369 13.6095 17.2285 13.5767 17.2121 13.5477Z" fill="#FE8F66"/>
</svg>
