<svg width="21" height="21" viewBox="0 0 21 21" fill="none" xmlns="http://www.w3.org/2000/svg">
<path d="M17.7033 1.76605V2.96989H16.5152V1.76605H13.4102V2.96989H12.2221V1.76605H9.11715V2.96989H7.92903V1.76605H4.82408V2.96989H3.63596V1.76605H0.531006V4.54332H20.8082V1.76605H17.7033Z" fill="white"/>
<path d="M17.0974 20.5821L20.808 16.8516H17.0974V20.5821Z" fill="white"/>
<path d="M0.531006 20.5821H15.9095V15.6635H20.8082V5.73148H0.531006V20.5821ZM7.86309 15.1238H10.5814C11.3589 15.1238 11.9914 14.4993 11.9914 13.7318C11.9914 12.9643 11.3589 12.3399 10.5814 12.3399H7.93703V8.52676H12.8081V9.71488H9.12515V11.1518H10.5814C12.014 11.1518 13.1795 12.3092 13.1795 13.7318C13.1795 15.1544 12.014 16.3119 10.5814 16.3119H7.86309V15.1238Z" fill="white"/>
<path d="M16.5149 0.582153H17.703V1.76611H16.5149V0.582153Z" fill="white"/>
<path d="M12.2224 0.582153H13.4105V1.76611H12.2224V0.582153Z" fill="white"/>
<path d="M7.9292 0.582153H9.11732V1.76611H7.9292V0.582153Z" fill="white"/>
<path d="M3.63574 0.582153H4.82386V1.76611H3.63574V0.582153Z" fill="white"/>
</svg>
