<svg width="31" height="20" viewBox="0 0 31 20" fill="none" xmlns="http://www.w3.org/2000/svg">
<path d="M14.4232 7.16588H11.9709V19.1565H14.4232V7.16588Z" fill="white"/>
<path d="M16.6709 7.18566V9.43367H18.7354V16.1984C18.7354 17.1315 18.9919 17.8813 19.4846 18.4467C19.9776 19.0314 20.6349 19.321 21.4631 19.3408C22.2851 19.36 23.0147 19.1765 23.6327 18.7956L23.6723 18.7758V18.7361L24.2572 16.4551L24.1127 16.547C23.4554 16.9484 22.8504 17.1455 22.2982 17.1455C21.5358 17.1455 21.148 16.6915 21.148 15.7978V9.43383H23.6531V7.18582H21.148V3.4383L18.7356 4.73372V7.18566H16.6709Z" fill="white"/>
<path d="M28.537 7.16588H26.0652V19.1565H28.537V7.16588Z" fill="white"/>
<path d="M10.564 9.05277L10.5115 9.01343C9.38071 7.63933 7.96759 6.96854 6.27139 6.96854C4.49683 6.96854 3.03682 7.51409 1.86705 8.59257C0.624546 9.72966 0 11.2611 0 13.1808C0 15.1001 0.624546 16.619 1.86705 17.7689C3.01763 18.8471 4.49691 19.3795 6.27139 19.3795C7.96751 19.3795 9.39388 18.7024 10.5115 17.3481L10.564 17.3088L9.17702 15.6325L9.12444 15.6847C8.22411 16.579 7.25738 17.0393 6.2188 17.0393C5.13398 17.0393 4.24031 16.671 3.5301 15.9413C2.81331 15.2248 2.47201 14.2978 2.47201 13.1808C2.47201 12.063 2.81355 11.1299 3.5301 10.4002C4.24031 9.69 5.13398 9.32173 6.2188 9.32173C7.2573 9.32173 8.22403 9.78169 9.12444 10.676L9.17702 10.7289L10.564 9.05277Z" fill="white"/>
<path d="M13.1804 5.19411C14.1468 4.20787 15.225 3.45832 16.4539 2.92571C17.637 2.41292 18.8996 2.16299 20.201 2.16299C21.4964 2.16299 22.7584 2.41292 23.9678 2.92571C25.1707 3.458 26.2492 4.20787 27.2156 5.19411L27.2549 5.22655H30.0683L29.9629 5.06196C28.8454 3.49108 27.3994 2.24857 25.6636 1.34134C23.9284 0.441012 22.1205 0 20.2007 0C18.3012 0 16.4668 0.441012 14.7313 1.34134C12.9961 2.24857 11.5499 3.49108 10.439 5.06196L10.3269 5.22655H13.1604L13.1804 5.19411Z" fill="#EA2230"/>
<path d="M14.4232 7.16588H11.9709V19.1565H14.4232V7.16588Z" fill="white"/>
<path d="M16.6709 7.18566V9.43367H18.7354V16.1984C18.7354 17.1315 18.9919 17.8813 19.4846 18.4467C19.9776 19.0314 20.6349 19.321 21.4631 19.3408C22.2851 19.36 23.0147 19.1765 23.6327 18.7956L23.6723 18.7758V18.7361L24.2572 16.4551L24.1127 16.547C23.4554 16.9484 22.8504 17.1455 22.2982 17.1455C21.5358 17.1455 21.148 16.6915 21.148 15.7978V9.43383H23.6531V7.18582H21.148V3.4383L18.7356 4.73372V7.18566H16.6709Z" fill="white"/>
<path d="M28.537 7.16588H26.0652V19.1565H28.537V7.16588Z" fill="white"/>
<path d="M10.564 9.05277L10.5115 9.01343C9.38071 7.63933 7.96759 6.96854 6.27139 6.96854C4.49683 6.96854 3.03682 7.51409 1.86705 8.59257C0.624546 9.72966 0 11.2611 0 13.1808C0 15.1001 0.624546 16.619 1.86705 17.7689C3.01763 18.8471 4.49691 19.3795 6.27139 19.3795C7.96751 19.3795 9.39388 18.7024 10.5115 17.3481L10.564 17.3088L9.17702 15.6325L9.12444 15.6847C8.22411 16.579 7.25738 17.0393 6.2188 17.0393C5.13398 17.0393 4.24031 16.671 3.5301 15.9413C2.81331 15.2248 2.47201 14.2978 2.47201 13.1808C2.47201 12.063 2.81355 11.1299 3.5301 10.4002C4.24031 9.69 5.13398 9.32173 6.2188 9.32173C7.2573 9.32173 8.22403 9.78169 9.12444 10.676L9.17702 10.7289L10.564 9.05277Z" fill="white"/>
<path d="M13.1804 5.19411C14.1468 4.20787 15.225 3.45832 16.4539 2.92571C17.637 2.41292 18.8996 2.16299 20.201 2.16299C21.4964 2.16299 22.7584 2.41292 23.9678 2.92571C25.1707 3.458 26.2492 4.20787 27.2156 5.19411L27.2549 5.22655H30.0683L29.9629 5.06196C28.8454 3.49108 27.3994 2.24857 25.6636 1.34134C23.9284 0.441012 22.1205 0 20.2007 0C18.3012 0 16.4668 0.441012 14.7313 1.34134C12.9961 2.24857 11.5499 3.49108 10.439 5.06196L10.3269 5.22655H13.1604L13.1804 5.19411Z" fill="#E92F30"/>
</svg>
