<svg width="49" height="48" viewBox="0 0 49 48" fill="none" xmlns="http://www.w3.org/2000/svg">
<rect x="7.98853" y="7" width="34" height="34" rx="10" fill="white"/>
<path fill-rule="evenodd" clip-rule="evenodd" d="M31.2316 18.3428H20.4745L19.7173 20.7285H29.503H32.9173C32.9173 20.7285 33.5888 18.3428 31.2316 18.3428ZM23.5745 22.0142H17.7745L17.0173 24.2285H22.8316L23.5745 22.0142ZM17.3888 27.8999L18.1602 25.5142H27.9316H27.9602L27.9602 25.5142H31.3887C31.3844 25.5252 30.4407 27.8999 28.203 27.8999H17.3888ZM31.3888 25.5142H27.9602L29.503 20.7285H32.9173L31.3888 25.5142ZM31.3888 25.5142C31.3888 25.5142 31.3888 25.5142 31.3887 25.5142H31.3888L31.3888 25.5142Z" fill="#4F46BA"/>
<rect x="1.98853" y="1" width="46" height="46" rx="12" stroke="white" stroke-width="2"/>
</svg>
