<svg width="31" height="20" viewBox="0 0 31 20" fill="none" xmlns="http://www.w3.org/2000/svg">
<path d="M14.6141 7.36855H12.1619V19.3592H14.6141V7.36855Z" fill="white"/>
<path d="M16.8618 7.38832V9.63633H18.9263V16.4011C18.9263 17.3342 19.1828 18.084 19.6755 18.6494C20.1685 19.2341 20.8258 19.5237 21.654 19.5435C22.476 19.5627 23.2056 19.3791 23.8236 18.9983L23.8632 18.9784V18.9388L24.4481 16.6578L24.3036 16.7497C23.6463 17.151 23.0413 17.3481 22.4892 17.3481C21.7267 17.3481 21.3389 16.8942 21.3389 16.0005V9.63649H23.8441V7.38848H21.3389V3.64097L18.9265 4.93638V7.38832H16.8618Z" fill="white"/>
<path d="M28.7279 7.36855H26.2561V19.3592H28.7279V7.36855Z" fill="white"/>
<path d="M10.755 9.25544L10.7024 9.21609C9.57163 7.842 8.15851 7.17121 6.46231 7.17121C4.68774 7.17121 3.22774 7.71675 2.05797 8.79523C0.815464 9.93233 0.190918 11.4638 0.190918 13.3834C0.190918 15.3027 0.815464 16.8217 2.05797 17.9716C3.20855 19.0498 4.68782 19.5822 6.46231 19.5822C8.15843 19.5822 9.58479 18.905 10.7024 17.5508L10.755 17.5114L9.36794 15.8351L9.31535 15.8874C8.41503 16.7817 7.4483 17.242 6.40972 17.242C5.32489 17.242 4.43123 16.8737 3.72102 16.144C3.00422 15.4275 2.66293 14.5004 2.66293 13.3835C2.66293 12.2657 3.00446 11.3326 3.72102 10.6029C4.43123 9.89267 5.32489 9.52439 6.40972 9.52439C7.44822 9.52439 8.41495 9.98435 9.31535 10.8787L9.36794 10.9316L10.755 9.25544Z" fill="white"/>
<path d="M13.3713 5.39678C14.3377 4.41054 15.4159 3.66099 16.6449 3.12837C17.8279 2.61559 19.0905 2.36565 20.3919 2.36565C21.6873 2.36565 22.9493 2.61559 24.1588 3.12837C25.3616 3.66067 26.4401 4.41054 27.4065 5.39678L27.4458 5.42921H30.2592L30.1538 5.26463C29.0363 3.69375 27.5903 2.45124 25.8546 1.54401C24.1193 0.643679 22.3115 0.202667 20.3916 0.202667C18.4921 0.202667 16.6577 0.643679 14.9222 1.54401C13.187 2.45124 11.7408 3.69375 10.6299 5.26463L10.5178 5.42921H13.3514L13.3713 5.39678Z" fill="#EA2230"/>
<path d="M14.6141 7.36855H12.1619V19.3592H14.6141V7.36855Z" fill="white"/>
<path d="M16.8618 7.38832V9.63633H18.9263V16.4011C18.9263 17.3342 19.1828 18.084 19.6755 18.6494C20.1685 19.2341 20.8258 19.5237 21.654 19.5435C22.476 19.5627 23.2056 19.3791 23.8236 18.9983L23.8632 18.9784V18.9388L24.4481 16.6578L24.3036 16.7497C23.6463 17.151 23.0413 17.3481 22.4892 17.3481C21.7267 17.3481 21.3389 16.8942 21.3389 16.0005V9.63649H23.8441V7.38848H21.3389V3.64097L18.9265 4.93638V7.38832H16.8618Z" fill="white"/>
<path d="M28.7279 7.36855H26.2561V19.3592H28.7279V7.36855Z" fill="white"/>
<path d="M10.755 9.25544L10.7024 9.21609C9.57163 7.842 8.15851 7.17121 6.46231 7.17121C4.68774 7.17121 3.22774 7.71675 2.05797 8.79523C0.815464 9.93233 0.190918 11.4638 0.190918 13.3834C0.190918 15.3027 0.815464 16.8217 2.05797 17.9716C3.20855 19.0498 4.68782 19.5822 6.46231 19.5822C8.15843 19.5822 9.58479 18.905 10.7024 17.5508L10.755 17.5114L9.36794 15.8351L9.31535 15.8874C8.41503 16.7817 7.4483 17.242 6.40972 17.242C5.32489 17.242 4.43123 16.8737 3.72102 16.144C3.00422 15.4275 2.66293 14.5004 2.66293 13.3835C2.66293 12.2657 3.00446 11.3326 3.72102 10.6029C4.43123 9.89267 5.32489 9.52439 6.40972 9.52439C7.44822 9.52439 8.41495 9.98435 9.31535 10.8787L9.36794 10.9316L10.755 9.25544Z" fill="white"/>
<path d="M13.3713 5.39678C14.3377 4.41054 15.4159 3.66099 16.6449 3.12837C17.8279 2.61559 19.0905 2.36565 20.3919 2.36565C21.6873 2.36565 22.9493 2.61559 24.1588 3.12837C25.3616 3.66067 26.4401 4.41054 27.4065 5.39678L27.4458 5.42921H30.2592L30.1538 5.26463C29.0363 3.69375 27.5903 2.45124 25.8546 1.54401C24.1193 0.643679 22.3115 0.202667 20.3916 0.202667C18.4921 0.202667 16.6577 0.643679 14.9222 1.54401C13.187 2.45124 11.7408 3.69375 10.6299 5.26463L10.5178 5.42921H13.3514L13.3713 5.39678Z" fill="#E92F30"/>
</svg>
