<svg width="49" height="48" viewBox="0 0 49 48" fill="none" xmlns="http://www.w3.org/2000/svg">
<rect x="7.90344" y="7" width="34" height="34" rx="10" fill="white"/>
<path fill-rule="evenodd" clip-rule="evenodd" d="M19.0596 25.1618C19.0551 25.0879 19.0528 25.0113 19.0528 24.9319C19.0528 22.3742 21.0465 20.2945 23.5411 20.2058C23.6006 20.2058 23.6651 20.2058 23.7246 20.2107L23.1295 19.6193C23.1295 19.6193 25.5249 19.2201 28.5998 21.0682C28.5998 21.0682 28.6444 21.1618 28.5998 21.4378C28.5998 21.4378 30.0479 22.0588 30.1719 23.2662C30.2959 24.4736 29.5272 25.1635 28.9072 25.2621C28.9072 25.2621 29.2296 24.7643 28.7337 24.4982C28.6295 24.4391 28.5055 24.4144 28.3815 24.4193C27.4343 24.4193 27.3252 25.4937 27.3252 25.4937C27.3153 25.5479 27.3153 25.6021 27.3153 25.6563C27.3153 25.6563 27.1773 27.0224 29.4405 27.1837C29.9407 26.5429 30.3936 25.8288 30.7936 25.0493C31.212 24.233 31.546 23.3956 31.8045 22.5717C31.9602 22.0757 32.0698 21.6472 32.1411 21.3072C30.823 20.2259 29.2675 19.2993 27.5952 18.5234C26.9691 18.2328 26.3613 17.98 25.7866 17.7636C25.4313 17.6298 25.141 17.5291 24.8998 17.451C24.6653 17.5264 24.3676 17.6295 24.0112 17.7636C23.4373 17.9797 22.8292 18.2326 22.203 18.5234C20.5322 19.299 18.977 20.2258 17.6586 21.3074C17.7297 21.6511 17.8383 22.0794 17.9937 22.5769C18.2514 23.4018 18.5857 24.2405 19.0064 25.0592C19.024 25.0935 19.0417 25.1277 19.0596 25.1618ZM32.9034 21.0195L32.8674 21.2227C32.8481 21.3807 32.7194 21.9466 32.5606 22.4884C32.284 23.4325 31.9083 24.4083 31.4199 25.3614C30.7612 26.6455 29.9608 27.7661 29.0432 28.6879C27.9104 29.8236 26.6004 30.662 25.1396 31.1843L25.0583 31.2129L24.9033 31.2727L24.7497 31.2188L24.6642 31.1888C23.2003 30.6654 21.8862 29.8252 20.7613 28.6923C19.8393 27.7611 19.0404 26.6439 18.385 25.3661C17.897 24.4117 17.5226 23.437 17.2461 22.4914C17.1492 22.1597 17.0713 21.8551 17.0103 21.5821C16.9737 21.4186 16.9338 21.2153 16.941 21.2441L16.9034 21.0352L16.9905 20.9621L17.0549 20.9079C18.3959 19.779 19.9822 18.8106 21.6949 17.9969C22.836 17.4548 23.8792 17.0523 24.6669 16.7996L24.8986 16.7273L25.0562 16.7742L25.1345 16.8001C25.9208 17.0523 26.964 17.4548 28.1051 17.9969C29.8151 18.8093 31.3992 19.776 32.7389 20.9027L32.9034 21.0195ZM27.3748 21.5462C27.4144 21.5265 27.5434 21.4625 27.6922 21.3097C27.9897 21.3491 28.2823 21.4427 28.2823 21.4427C27.7418 21.1175 27.0028 20.9253 26.1845 20.9302C26.1845 20.9302 26.4969 21.3738 27.3648 21.5561C27.3648 21.5561 27.3698 21.5512 27.3748 21.5462Z" fill="#4F46BA"/>
<rect x="1.90344" y="1" width="46" height="46" rx="12" stroke="white" stroke-width="2"/>
</svg>
