<svg width="29" height="29" viewBox="0 0 29 29" fill="none" xmlns="http://www.w3.org/2000/svg">
<path d="M14.743 13.5976C15.1694 13.5976 15.5164 13.2506 15.5164 12.8241C15.5164 12.3976 15.1695 12.0506 14.743 12.0506H13.6255V13.5976H14.743Z" fill="white"/>
<path d="M13.6255 15.2386V17.1203H15.1643C15.683 17.1203 16.1051 16.6983 16.1051 16.1795C16.1051 15.6607 15.683 15.2386 15.1643 15.2386H13.6255Z" fill="white"/>
<path d="M11.0003 18.7613V17.1203H11.9848V12.0507H11.0003V10.4097H13.3878V9.01425H9.62485L8.63965 9.99951V19.1646L9.62485 20.1499H13.3878V18.7613H11.0003Z" fill="white"/>
<path d="M15.0283 9.01425V10.4271C16.2255 10.5689 17.1572 11.5894 17.1572 12.8241C17.1572 13.314 17.0102 13.7699 16.7585 14.151C17.3591 14.6241 17.7459 15.3572 17.7459 16.1794C17.7459 17.603 16.5877 18.7613 15.1641 18.7613H15.0283V20.1499H18.7895L19.7747 19.1646V9.99951L18.7895 9.01431H15.0283V9.01425Z" fill="white"/>
<path d="M28.207 10.9242V9.28319H24.7861V6.72284L22.0663 4.00299H19.5059V0.582153H17.8649V4.00299H15.0275V0.582153H13.3865V4.00299H10.549V0.582153H8.90801V4.00299H6.34767L3.62781 6.72284V9.28319H0.207031V10.9242H3.62787V13.7617H0.207031V15.4027H3.62787V18.2401H0.207031V19.8811H3.62787V22.4415L6.34772 25.1613H8.90807V28.5822H10.5491V25.1613H13.3865V28.5822H15.0275V25.1613H17.865V28.5822H19.506V25.1613H22.0663L24.7862 22.4415V19.8811H28.207V18.2401H24.7862V15.4026H28.207V13.7616H24.7862V10.9241H28.207V10.9242ZM21.4158 19.8444L19.4693 21.7909H8.94466L6.99821 19.8444V9.31978L8.94466 7.37328H19.4693L21.4157 9.31978V19.8444H21.4158Z" fill="white"/>
</svg>
