<svg width="9" height="12" viewBox="0 0 9 12" fill="none" xmlns="http://www.w3.org/2000/svg">
<path d="M0.543374 0.18869C0.699177 0.108461 0.874094 0.072769 1.04887 0.0855414C1.22366 0.0983139 1.39153 0.159056 1.53401 0.261083L8.20175 5.02376C8.32523 5.11187 8.42588 5.2282 8.49532 5.36306C8.56477 5.49793 8.60099 5.64743 8.60099 5.79912C8.60099 5.95081 8.56477 6.10031 8.49532 6.23518C8.42588 6.37004 8.32523 6.48637 8.20175 6.57448L1.53401 11.3372C1.39157 11.4391 1.22379 11.4998 1.0491 11.5126C0.874405 11.5253 0.699575 11.4897 0.543825 11.4096C0.388076 11.3294 0.257439 11.2079 0.166277 11.0583C0.0751153 10.9088 0.026958 10.737 0.0271001 10.5618V1.03645C0.0269167 0.861337 0.075007 0.689566 0.166087 0.540007C0.257166 0.390448 0.38771 0.26889 0.543374 0.18869Z" fill="#457EFF"/>
</svg>
