<svg width="179" height="164" viewBox="0 0 179 164" fill="none" xmlns="http://www.w3.org/2000/svg">
<path d="M81.5072 163.097C101.235 163.097 117.227 160.524 117.227 157.349C117.227 154.175 101.235 151.602 81.5072 151.602C61.7797 151.602 45.7874 154.175 45.7874 157.349C45.7874 160.524 61.7797 163.097 81.5072 163.097Z" fill="#DCE1EF"/>
<circle cx="123.748" cy="104.577" r="26.3193" transform="rotate(6.91117 123.748 104.577)" fill="#457EFF"/>
<circle cx="119.098" cy="72.4288" r="18.8746" transform="rotate(6.91117 119.098 72.4288)" fill="#457EFF"/>
<circle cx="54.2992" cy="64.5745" r="14.902" transform="rotate(6.91117 54.2992 64.5745)" fill="#457EFF"/>
<circle cx="43.5866" cy="90.2302" r="30.884" transform="rotate(6.91117 43.5866 90.2302)" fill="#457EFF"/>
<circle cx="88.184" cy="61.3024" r="35.153" transform="rotate(6.91117 88.184 61.3024)" fill="#457EFF"/>
<path d="M118.737 130.451L36.0942 120.434L63.1794 86.4072L123.194 93.6817L118.737 130.451Z" fill="#457EFF"/>
<circle cx="69.6119" cy="53.3827" r="21.4048" transform="rotate(6.91117 69.6119 53.3827)" fill="#ECF0F6"/>
<circle cx="69.6126" cy="53.3829" r="20.8983" transform="rotate(6.91117 69.6126 53.3829)" fill="#FFFEFE"/>
<circle cx="70.107" cy="60.5164" r="4.65116" transform="rotate(6.91117 70.107 60.5164)" fill="#454545"/>
<path d="M103.102 96.736C102.741 101.496 97.6811 105.605 93.0953 105.257C88.5095 104.908 83.3256 99.5091 83.6633 95.0642C83.9131 91.7767 89.3074 89.9337 93.8932 90.2821C98.479 90.6305 103.352 93.4485 103.102 96.736Z" fill="white"/>
<circle cx="131.773" cy="66.1914" r="15.6619" transform="rotate(6.91117 131.773 66.1914)" fill="#ECF0F6"/>
<circle cx="131.77" cy="66.1896" r="15.2912" transform="rotate(6.91117 131.77 66.1896)" fill="#FFFEFE"/>
<circle cx="138.647" cy="65.6938" r="3.77811" transform="rotate(6.91117 138.647 65.6938)" fill="#454545"/>
<ellipse cx="128.419" cy="94.9115" rx="6.54152" ry="3.63755" transform="rotate(6.91117 128.419 94.9115)" fill="#FFC6C6"/>
<path fill-rule="evenodd" clip-rule="evenodd" d="M132.838 94.3771C133.023 94.4579 133.107 94.6728 133.026 94.8571L131.846 97.5495C131.765 97.7338 131.55 97.8178 131.366 97.737C131.181 97.6562 131.097 97.4413 131.178 97.2569L132.358 94.5645C132.439 94.3802 132.654 94.2963 132.838 94.3771Z" fill="black"/>
<path fill-rule="evenodd" clip-rule="evenodd" d="M134.176 94.5386C134.36 94.6194 134.444 94.8343 134.363 95.0186L133.183 97.711C133.103 97.8953 132.888 97.9793 132.703 97.8985C132.519 97.8177 132.435 97.6028 132.516 97.4184L133.696 94.726C133.777 94.5417 133.992 94.4578 134.176 94.5386Z" fill="black"/>
<path fill-rule="evenodd" clip-rule="evenodd" d="M135.515 94.7004C135.699 94.7812 135.783 94.9961 135.702 95.1805L134.522 97.8729C134.442 98.0572 134.227 98.1411 134.042 98.0604C133.858 97.9796 133.774 97.7646 133.855 97.5803L135.035 94.8879C135.116 94.7036 135.33 94.6196 135.515 94.7004Z" fill="black"/>
<ellipse cx="58.9359" cy="86.4631" rx="6.54152" ry="3.63755" transform="rotate(10.9665 58.9359 86.4631)" fill="#FFC6C6"/>
<path fill-rule="evenodd" clip-rule="evenodd" d="M54.2624 85.3615C54.4468 85.4423 54.5307 85.6572 54.4499 85.8415L53.2962 88.4738C53.2154 88.6582 53.0005 88.7421 52.8162 88.6613C52.6318 88.5805 52.5479 88.3656 52.6287 88.1813L53.7824 85.549C53.8631 85.3646 54.0781 85.2807 54.2624 85.3615Z" fill="black"/>
<path fill-rule="evenodd" clip-rule="evenodd" d="M55.5744 85.5205C55.7588 85.6013 55.8427 85.8163 55.7619 86.0006L54.6082 88.6329C54.5274 88.8172 54.3125 88.9012 54.1282 88.8204C53.9438 88.7396 53.8599 88.5247 53.9407 88.3403L55.0944 85.708C55.1752 85.5237 55.3901 85.4397 55.5744 85.5205Z" fill="black"/>
<path fill-rule="evenodd" clip-rule="evenodd" d="M56.882 85.6791C57.0664 85.7599 57.1503 85.9748 57.0695 86.1592L55.9158 88.7915C55.8351 88.9758 55.6201 89.0597 55.4358 88.979C55.2514 88.8982 55.1675 88.6832 55.2483 88.4989L56.402 85.8666C56.4828 85.6823 56.6977 85.5983 56.882 85.6791Z" fill="black"/>
<path d="M146.354 106.125C148.34 106.739 150.966 106.752 154.949 109.979C158.932 113.205 160.793 117.047 162.15 120.263" stroke="#575A60" stroke-width="1.62464" stroke-linecap="round"/>
<path d="M22.4338 72.8341C20.0594 70.2206 15.3111 59.9478 14.7595 51.9511C14.2798 44.9973 16.671 37.2414 17.9054 33.9365" stroke="#404247" stroke-width="1.62464" stroke-linecap="round"/>
<circle cx="19.6064" cy="28.8247" r="5.29775" transform="rotate(6.91117 19.6064 28.8247)" fill="#404247"/>
<circle cx="5.29462" cy="5.29462" r="5.29462" transform="matrix(0.992734 0.12033 0.12033 -0.992734 156.501 129.177)" fill="#575A60"/>
<path fill-rule="evenodd" clip-rule="evenodd" d="M66.6452 79.9766C82.183 81.3129 93.3931 70.9653 95.0006 57.7032C96.8042 42.8239 86.632 29.9392 72.9119 28.2761C59.1918 26.6131 45.5185 35.843 43.8555 49.563C42.1925 63.2831 51.3874 78.6643 66.6452 79.9766ZM65.5679 84.2545C83.0176 86.3696 98.878 73.9385 100.993 56.4887C103.108 39.039 90.6771 23.1786 73.2274 21.0635C55.7776 18.9484 39.9172 31.3796 37.8021 48.8293C35.687 66.279 48.1182 82.1394 65.5679 84.2545Z" fill="#404247"/>
<path fill-rule="evenodd" clip-rule="evenodd" d="M128.545 84.9037C138.654 86.1289 148.021 78.5167 149.246 68.4082C150.472 58.2997 144.023 47.8086 132.601 46.4241C120.033 44.9007 112.685 53.2273 111.46 63.3358C110.235 73.4443 118.437 83.6784 128.545 84.9037ZM127.844 90.6921C141.149 92.3048 153.243 82.8261 154.855 69.5208C156.468 56.2154 146.989 44.1219 133.684 42.5091C120.379 40.8964 108.285 50.3751 106.672 63.6805C105.06 76.9858 114.538 89.0793 127.844 90.6921Z" fill="#404247"/>
<path fill-rule="evenodd" clip-rule="evenodd" d="M105.052 53.2218C101.284 54.4384 99.9091 59.3357 100.893 62.3837C101.877 65.4317 105.146 67.1048 108.194 66.1206C108.302 66.0858 108.377 66.0611 108.429 66.0433L108.435 66.0388C108.521 65.9762 108.655 65.8788 108.822 65.7628L112.117 70.4985C112.005 70.5765 111.927 70.6332 111.843 70.6941C111.82 70.7108 111.797 70.7277 111.772 70.7455C111.673 70.8177 111.491 70.9489 111.272 71.0755C110.821 71.3354 110.364 71.4828 109.999 71.6005L109.967 71.6108C103.887 73.574 97.3664 70.2366 95.4031 64.1564C93.4399 58.0763 96.7773 51.5558 102.857 49.5926C104.538 49.05 106.317 49.171 107.111 49.2673L106.84 53.0486C106.629 53.0231 106.296 53.0306 105.933 53.0427C105.557 53.0553 105.253 53.157 105.052 53.2218Z" fill="#404247"/>
<path fill-rule="evenodd" clip-rule="evenodd" d="M31.2554 48.4562L34.7224 48.8764L30.2198 59.9251L42.6537 60.8863L41.9521 66.6747L23.0548 64.3841L31.2554 48.4562Z" fill="#404247"/>
<path d="M108.408 11.4069L80.6186 14.492L91.1989 24.6572L97.4508 27.3758L108.485 31.9719L126.612 31.8436L108.408 11.4069Z" fill="#333539"/>
<path d="M90.8012 26.2558L92.5347 19.3983C94.4554 19.2006 98.1658 18.1489 103.747 19.2817C109.072 20.3627 113.276 23.8983 114.127 25.1875L111.661 35.1406C111.661 35.1406 107.271 31.3483 101.455 29.1096C95.5528 26.8379 90.8012 26.2558 90.8012 26.2558Z" fill="#45484F"/>
<rect x="123.335" y="29.978" width="0.494671" height="5.85694" transform="rotate(0.273212 123.335 29.978)" fill="#333539"/>
<path d="M122.961 37.0065L124.031 37.0116L124.725 40.7292C124.725 40.7292 123.926 41.1134 123.379 41.1139C122.821 41.1143 122.112 40.6118 122.112 40.6118L122.961 37.0065Z" fill="#333539"/>
<circle cx="123.499" cy="36.3738" r="0.915725" transform="rotate(0.273212 123.499 36.3738)" fill="#333539"/>
<path d="M80.6342 14.5028L80.7608 13.8731L108.616 10.9731L126.756 31.2087L126.584 31.8789L108.29 11.6932L80.6342 14.5028Z" fill="#53565E"/>
</svg>
