<svg width="18" height="18" viewBox="0 0 18 18" fill="none" xmlns="http://www.w3.org/2000/svg">
<path d="M17.6583 7.86112L9.74511 0.683753C9.39778 0.368669 8.874 0.368703 8.52681 0.683719L0.613564 7.86115C0.335331 8.11352 0.243426 8.50236 0.379355 8.85174C0.51532 9.20111 0.84636 9.42684 1.22277 9.42684H2.48665V16.618C2.48665 16.9031 2.71889 17.1343 3.00532 17.1343H7.34274C7.62917 17.1343 7.86142 16.9032 7.86142 16.618V12.2518H10.4106V16.6181C10.4106 16.9032 10.6428 17.1343 10.9293 17.1343H15.2665C15.5529 17.1343 15.7852 16.9032 15.7852 16.6181V9.42684H17.0493C17.4257 9.42684 17.7567 9.20107 17.8927 8.85174C18.0285 8.50233 17.9366 8.11352 17.6583 7.86112Z" fill="#4F37FD"/>
<path d="M15.6497 1.478H12.1664L16.1684 5.10018V1.99426C16.1684 1.70914 15.9361 1.478 15.6497 1.478Z" fill="#4F37FD"/>
</svg>
