<svg width="44" height="44" viewBox="0 0 44 44" fill="none" xmlns="http://www.w3.org/2000/svg">
<path fill-rule="evenodd" clip-rule="evenodd" d="M17.611 16.9795C17.426 17.9963 16.3716 23.7242 16.155 24.8922C15.9383 26.0602 16.8668 27.1072 17.7783 27.1072C18.6899 27.1072 18.8104 27.1072 19.1845 27.1072C19.5587 27.1072 20.1157 27.3799 19.906 28.373C19.6963 29.3661 19.4795 30.3877 19.2664 31.3526C19.0533 32.3175 20.1214 32.7066 20.5844 31.9543C21.0475 31.2021 24.5051 25.4604 24.903 24.6883C25.3009 23.9161 24.6492 22.722 23.6682 22.722C22.6872 22.722 22.2813 22.722 21.7667 22.722C21.2522 22.722 21.18 22.3409 21.3667 21.5557C21.5535 20.7705 21.778 19.7434 22.1252 18.2381C22.4725 16.7329 21.0733 15.9153 20.336 15.9153C19.5988 15.9153 18.806 15.9153 18.5875 15.9153C18.3689 15.9153 17.796 15.9626 17.611 16.9795Z" fill="#457EFF"/>
<path d="M35.6499 19.3863H34.6577V10.6038C34.6577 9.95408 34.3996 9.33097 33.9402 8.87154C33.4808 8.41212 32.8577 8.15402 32.208 8.15402H24.8586C24.7811 6.67949 24.1879 5.27909 23.1825 4.19763C22.1772 3.11617 20.8238 2.42246 19.3588 2.23777C18.5209 2.1515 17.6742 2.23901 16.8716 2.49483C16.069 2.75065 15.3279 3.16927 14.6944 3.72453C14.061 4.27979 13.5489 4.95975 13.1902 5.7219C12.8315 6.48406 12.6338 7.31201 12.6096 8.15402H4.03536C3.38564 8.15402 2.76252 8.41212 2.3031 8.87154C1.84367 9.33097 1.58557 9.95408 1.58557 10.6038V20.6112H5.02753C5.97004 20.5838 6.88958 20.9047 7.61041 21.5126C8.33124 22.1204 8.80279 22.9726 8.93494 23.9062C8.98263 24.4184 8.92222 24.9349 8.75764 25.4224C8.59306 25.9098 8.32797 26.3572 7.97952 26.7357C7.63706 27.1186 7.21812 27.4254 6.74974 27.6364C6.28137 27.8474 5.77395 27.9578 5.26026 27.9606H1.58557V38.7764C1.58557 39.4261 1.84367 40.0492 2.3031 40.5087C2.76252 40.9681 3.38564 41.2262 4.03536 41.2262H32.208C32.8577 41.2262 33.4808 40.9681 33.9402 40.5087C34.3996 40.0492 34.6577 39.4261 34.6577 38.7764V31.6353H35.8826C36.7423 31.6397 37.5933 31.4632 38.3802 31.1171C39.1671 30.771 39.8724 30.2632 40.4501 29.6265C41.0278 28.9899 41.465 28.2388 41.7332 27.4221C42.0015 26.6053 42.0948 25.7413 42.0071 24.8861C41.8086 23.3483 41.0507 21.9375 39.8781 20.923C38.7054 19.9086 37.2003 19.3615 35.6499 19.3863ZM38.6019 27.9606C38.2594 28.3435 37.8405 28.6503 37.3721 28.8613C36.9037 29.0723 36.3963 29.1827 35.8826 29.1855H32.208V38.7764H4.03536V30.4104H5.26026C6.11991 30.4149 6.97088 30.2383 7.7578 29.8922C8.54473 29.5461 9.24998 29.0383 9.82768 28.4016C10.4054 27.765 10.8426 27.0139 11.1108 26.1972C11.3791 25.3804 11.4724 24.5164 11.3847 23.6612C11.1862 22.1234 10.4283 20.7126 9.25567 19.6981C8.08305 18.6837 6.57787 18.1366 5.02753 18.1614H4.03536V10.6038H15.0594V8.36225C15.0622 7.84855 15.1726 7.34114 15.3836 6.87276C15.5946 6.40438 15.9014 5.98544 16.2843 5.64298C16.6628 5.29454 17.1102 5.02944 17.5976 4.86486C18.085 4.70028 18.6016 4.63988 19.1138 4.68756C20.0474 4.81971 20.8996 5.29127 21.5074 6.0121C22.1153 6.73292 22.4362 7.65247 22.4088 8.59498V10.6038H32.208V21.8361H35.6499C36.5924 21.8087 37.512 22.1296 38.2328 22.7375C38.9536 23.3453 39.4252 24.1975 39.5573 25.1311C39.605 25.6433 39.5446 26.1598 39.38 26.6473C39.2154 27.1347 38.9504 27.5821 38.6019 27.9606Z" fill="#457EFF"/>
</svg>
