<svg width="64" height="63" viewBox="0 0 64 63" fill="none" xmlns="http://www.w3.org/2000/svg">
<rect width="64" height="62.8213" transform="translate(0 0.139503)" fill="#F3F5FA"/>
<path d="M35.9927 19.7711H28.0072C26.598 19.7727 25.456 20.8937 25.4546 22.277V40.8235C25.456 42.2068 26.598 43.3277 28.0072 43.3291H35.9927C37.402 43.3277 38.5439 42.2068 38.5455 40.8235V22.277C38.5439 20.8937 37.402 19.7727 35.9927 19.7711V19.7711ZM32.0001 41.1876C31.3974 41.1876 30.909 40.7082 30.909 40.1167C30.909 39.5253 31.3974 39.0459 32.0001 39.0459C32.6025 39.0459 33.0909 39.5253 33.0909 40.1167C33.0909 40.7082 32.6025 41.1876 32.0001 41.1876ZM33.6364 22.9836H30.3637C30.0625 22.9836 29.8182 22.7438 29.8182 22.4481C29.8182 22.1525 30.0625 21.9129 30.3637 21.9129H33.6364C33.9377 21.9129 34.1818 22.1525 34.1818 22.4481C34.1818 22.7438 33.9377 22.9836 33.6364 22.9836Z" fill="#4F46BA"/>
</svg>
