<svg width="30" height="31" viewBox="0 0 30 31" fill="none" xmlns="http://www.w3.org/2000/svg">
<path d="M5.3145 27.063C2.93868 25.0741 1.24639 22.403 0.472008 19.4197C-0.302369 16.4363 -0.120505 13.2884 0.992413 10.412C2.10533 7.53551 4.09422 5.07284 6.68361 3.36506C9.27299 1.65728 12.3347 0.788921 15.4447 0.880247C18.5547 0.971572 21.5591 2.01807 24.0417 3.87478C26.5243 5.7315 28.3622 8.30654 29.301 11.2433C30.2397 14.18 30.2328 17.333 29.2812 20.2657C28.3295 23.1983 26.4803 25.7654 23.9896 27.6114L20.7206 23.2886C22.3057 22.1139 23.4824 20.4803 24.088 18.614C24.6936 16.7478 24.698 14.7413 24.1006 12.8725C23.5032 11.0037 22.3336 9.36503 20.7538 8.18349C19.174 7.00194 17.2621 6.33599 15.283 6.27787C13.3039 6.21976 11.3555 6.77235 9.70775 7.85912C8.05996 8.94589 6.7943 10.513 6.08608 12.3435C5.37786 14.174 5.26213 16.1772 5.75491 18.0757C6.2477 19.9742 7.32461 21.674 8.8365 22.9397L5.3145 27.063Z" fill="#F9896B"/>
<path d="M22.6781 13.91C22.9541 15.055 22.9652 16.2469 22.7107 17.3967C22.4561 18.5466 21.9425 19.6247 21.2081 20.5504C20.4737 21.4762 19.5375 22.2258 18.4695 22.7431C17.4015 23.2605 16.2292 23.5324 15.0402 23.5383C13.8511 23.5443 12.6761 23.2843 11.6029 22.7777C10.5296 22.2711 9.58577 21.531 8.84191 20.6126C8.09805 19.6943 7.57337 18.6214 7.30703 17.4742C7.04069 16.327 7.03959 15.135 7.3038 13.9873L10.1024 14.6187C9.93431 15.3491 9.93501 16.1076 10.1045 16.8377C10.274 17.5677 10.6079 18.2505 11.0812 18.8349C11.5546 19.4193 12.1552 19.8902 12.8382 20.2126C13.5212 20.535 14.2689 20.7005 15.0256 20.6967C15.7822 20.6929 16.5282 20.5199 17.2079 20.1906C17.8875 19.8614 18.4833 19.3844 18.9506 18.7953C19.418 18.2062 19.7448 17.5201 19.9068 16.7884C20.0688 16.0567 20.0617 15.2982 19.8861 14.5695L22.6781 13.91Z" fill="#7947F7"/>
</svg>
