<svg width="239" height="295" viewBox="0 0 239 295" fill="none" xmlns="http://www.w3.org/2000/svg">
<g opacity="0.7" filter="url(#filter0_d_2112_674)">
<mask id="mask0_2112_674" style="mask-type:alpha" maskUnits="userSpaceOnUse" x="12" y="12" width="265" height="541">
<path d="M266.243 12.4108H22.7976C17.3469 12.4108 12.9282 16.8294 12.9282 22.2802V542.596C12.9282 548.046 17.3469 552.465 22.7976 552.465H266.243C271.693 552.465 276.112 548.046 276.112 542.596V22.2802C276.112 16.8294 271.693 12.4108 266.243 12.4108Z" fill="white"/>
</mask>
<g mask="url(#mask0_2112_674)">
<g filter="url(#filter1_d_2112_674)">
<path d="M266.243 12.4108H22.7976C17.3469 12.4108 12.9282 16.8294 12.9282 22.2802V542.596C12.9282 548.046 17.3469 552.465 22.7976 552.465H266.243C271.693 552.465 276.112 548.046 276.112 542.596V22.2802C276.112 16.8294 271.693 12.4108 266.243 12.4108Z" fill="black"/>
</g>
<path d="M266.243 12.4108H22.7976C17.3469 12.4108 12.9282 16.8294 12.9282 22.2802V542.596C12.9282 548.046 17.3469 552.465 22.7976 552.465H266.243C271.693 552.465 276.112 548.046 276.112 542.596V22.2802C276.112 16.8294 271.693 12.4108 266.243 12.4108Z" fill="white"/>
<path d="M58.7444 86.1399H84.6614" stroke="#E0E7F2" stroke-width="1.66252" stroke-linecap="round"/>
<path d="M90.8987 68.9153H31.1888C28.4635 68.9153 26.2542 71.1246 26.2542 73.85V99.0169C26.2542 101.742 28.4635 103.952 31.1888 103.952H90.8987C93.624 103.952 95.8334 101.742 95.8334 99.0169V73.85C95.8334 71.1246 93.624 68.9153 90.8987 68.9153Z" stroke="#E0E7F2" stroke-width="0.581884"/>
<path d="M44.3279 80.1666H38.3774C36.5605 80.1666 35.0876 81.6395 35.0876 83.4564V89.4068C35.0876 91.2237 36.5605 92.6966 38.3774 92.6966H44.3279C46.1448 92.6966 47.6177 91.2237 47.6177 89.4068V83.4564C47.6177 81.6395 46.1448 80.1666 44.3279 80.1666Z" fill="#E0E7F2"/>
<path d="M141.641 86.1399H250.204" stroke="#E0E7F2" stroke-width="1.66252" stroke-linecap="round"/>
<path d="M124.424 80.1666H118.473C116.656 80.1666 115.183 81.6395 115.183 83.4564V89.4068C115.183 91.2237 116.656 92.6966 118.473 92.6966H124.424C126.24 92.6966 127.713 91.2237 127.713 89.4068V83.4564C127.713 81.6395 126.24 80.1666 124.424 80.1666Z" fill="#E0E7F2"/>
<path d="M257.856 68.9153H110.966C108.241 68.9153 106.032 71.1246 106.032 73.85V99.0169C106.032 101.742 108.241 103.952 110.966 103.952H257.856C260.581 103.952 262.791 101.742 262.791 99.0169V73.85C262.791 71.1246 260.581 68.9153 257.856 68.9153Z" stroke="#E0E7F2" stroke-width="0.581884"/>
<path d="M28.0244 137.29H233.919" stroke="#E0E7F2" stroke-width="1.66252" stroke-linecap="round"/>
<path d="M29.2637 124.781H145.511" stroke="#E0E7F2" stroke-width="3.32505" stroke-linecap="round"/>
<path d="M92.4221 158.713H34.9688C31.3349 158.713 28.3892 161.659 28.3892 165.292V218.423C28.3892 222.057 31.3349 225.002 34.9688 225.002H92.4221C96.0559 225.002 99.0017 222.057 99.0017 218.423V165.292C99.0017 161.659 96.0559 158.713 92.4221 158.713Z" stroke="#E0E7F2" stroke-width="0.581884"/>
<path d="M49.2178 210.489H78.3569" stroke="#E0E7F2" stroke-width="1.66252" stroke-linecap="round"/>
<path d="M74.3529 185.738C74.3529 179.851 69.5805 175.078 63.6935 175.078C57.8065 175.078 53.0342 179.851 53.0342 185.738C53.0342 191.625 57.8065 196.397 63.6935 196.397C69.5805 196.397 74.3529 191.625 74.3529 185.738Z" fill="#E0E7F2"/>
<path d="M92.4221 234.381H34.9688C31.3349 234.381 28.3892 237.327 28.3892 240.961V294.091C28.3892 297.725 31.3349 300.671 34.9688 300.671H92.4221C96.0559 300.671 99.0017 297.725 99.0017 294.091V240.961C99.0017 237.327 96.0559 234.381 92.4221 234.381Z" stroke="#E0E7F2" stroke-width="0.581884"/>
<path d="M49.2202 286.157H78.3594" stroke="#E0E7F2" stroke-width="1.66252" stroke-linecap="round"/>
<path d="M74.3549 261.404C74.3549 255.517 69.5825 250.745 63.6955 250.745C57.8085 250.745 53.0361 255.517 53.0361 261.404C53.0361 267.291 57.8085 272.063 63.6955 272.063C69.5825 272.063 74.3549 267.291 74.3549 261.404Z" fill="#E0E7F2"/>
<path d="M174.037 158.713H116.584C112.95 158.713 110.004 161.659 110.004 165.292V218.423C110.004 222.057 112.95 225.002 116.584 225.002H174.037C177.671 225.002 180.617 222.057 180.617 218.423V165.292C180.617 161.659 177.671 158.713 174.037 158.713Z" stroke="#E0E7F2" stroke-width="0.581884"/>
<path d="M125.904 210.489H164.559" stroke="#E0E7F2" stroke-width="1.66252" stroke-linecap="round"/>
<path d="M155.97 185.738C155.97 179.851 151.198 175.078 145.311 175.078C139.424 175.078 134.652 179.851 134.652 185.738C134.652 191.625 139.424 196.397 145.311 196.397C151.198 196.397 155.97 191.625 155.97 185.738Z" fill="#E0E7F2"/>
<path d="M255.657 234.381H198.204C194.57 234.381 191.624 237.327 191.624 240.961V294.091C191.624 297.725 194.57 300.671 198.204 300.671H255.657C259.291 300.671 262.237 297.725 262.237 294.091V240.961C262.237 237.327 259.291 234.381 255.657 234.381Z" stroke="#E0E7F2" stroke-width="0.581884"/>
<path d="M207.522 286.157H246.177" stroke="#E0E7F2" stroke-width="1.66252" stroke-linecap="round"/>
<path d="M237.589 261.404C237.589 255.517 232.817 250.745 226.93 250.745C221.043 250.745 216.271 255.517 216.271 261.404C216.271 267.291 221.043 272.063 226.93 272.063C232.817 272.063 237.589 267.291 237.589 261.404Z" fill="#E0E7F2"/>
<path d="M212.413 213.861H241.241" stroke="#E0E7F2" stroke-width="1.66252" stroke-linecap="round"/>
<path d="M207.522 207.124H246.177" stroke="#E0E7F2" stroke-width="1.66252" stroke-linecap="round"/>
<path d="M237.589 185.738C237.589 179.851 232.817 175.078 226.93 175.078C221.043 175.078 216.271 179.851 216.271 185.738C216.271 191.625 221.043 196.397 226.93 196.397C232.817 196.397 237.589 191.625 237.589 185.738Z" fill="#E0E7F2"/>
<path d="M255.657 158.713H198.204C194.57 158.713 191.624 161.659 191.624 165.292V218.423C191.624 222.057 194.57 225.002 198.204 225.002H255.657C259.291 225.002 262.237 222.057 262.237 218.423V165.292C262.237 161.659 259.291 158.713 255.657 158.713Z" stroke="#E0E7F2" stroke-width="0.581884"/>
<path d="M130.795 289.53H159.623" stroke="#E0E7F2" stroke-width="1.66252" stroke-linecap="round"/>
<path d="M125.904 282.792H164.559" stroke="#E0E7F2" stroke-width="1.66252" stroke-linecap="round"/>
<path d="M155.97 261.404C155.97 255.517 151.198 250.745 145.311 250.745C139.424 250.745 134.652 255.517 134.652 261.404C134.652 267.291 139.424 272.063 145.311 272.063C151.198 272.063 155.97 267.291 155.97 261.404Z" fill="#E0E7F2"/>
<path d="M174.037 234.381H116.584C112.95 234.381 110.004 237.327 110.004 240.961V294.091C110.004 297.725 112.95 300.671 116.584 300.671H174.037C177.671 300.671 180.617 297.725 180.617 294.091V240.961C180.617 237.327 177.671 234.381 174.037 234.381Z" stroke="#E0E7F2" stroke-width="0.581884"/>
<path d="M34.723 43.3709C39.7195 43.3709 43.7699 39.3204 43.7699 34.3239C43.7699 29.3274 39.7195 25.277 34.723 25.277C29.7265 25.277 25.676 29.3274 25.676 34.3239C25.676 39.3204 29.7265 43.3709 34.723 43.3709Z" fill="#457EFF"/>
<path fill-rule="evenodd" clip-rule="evenodd" d="M32.4524 29.1852C32.3153 29.9118 31.5336 34.0048 31.3729 34.8394C31.2123 35.674 31.9007 36.4221 32.5765 36.4221C33.2523 36.4221 33.3417 36.4221 33.619 36.4221C33.8964 36.4221 34.3094 36.617 34.154 37.3266C33.9985 38.0362 33.8378 38.7662 33.6798 39.4558C33.5218 40.1453 34.3136 40.4233 34.6569 39.8857C35.0003 39.3482 37.5637 35.2454 37.8587 34.6937C38.1537 34.1419 37.6705 33.2886 36.9432 33.2886C36.2159 33.2886 35.915 33.2886 35.5335 33.2886C35.152 33.2886 35.0985 33.0163 35.2369 32.4552C35.3754 31.8941 35.5419 31.1602 35.7993 30.0846C36.0567 29.009 35.0193 28.4248 34.4728 28.4248C33.9262 28.4248 33.3384 28.4248 33.1764 28.4248C33.0144 28.4248 32.5896 28.4586 32.4524 29.1852Z" fill="white"/>
<path d="M12.9282 55.5854H276.112" stroke="#E0E7F2" stroke-width="0.581884"/>
</g>
</g>
<defs>
<filter id="filter0_d_2112_674" x="0.309504" y="0.843607" width="288.421" height="565.292" filterUnits="userSpaceOnUse" color-interpolation-filters="sRGB">
<feFlood flood-opacity="0" result="BackgroundImageFix"/>
<feColorMatrix in="SourceAlpha" type="matrix" values="0 0 0 0 0 0 0 0 0 0 0 0 0 0 0 0 0 0 127 0" result="hardAlpha"/>
<feOffset dy="1.05156"/>
<feGaussianBlur stdDeviation="6.30936"/>
<feComposite in2="hardAlpha" operator="out"/>
<feColorMatrix type="matrix" values="0 0 0 0 0 0 0 0 0 0 0 0 0 0 0 0 0 0 0.04 0"/>
<feBlend mode="normal" in2="BackgroundImageFix" result="effect1_dropShadow_2112_674"/>
<feBlend mode="normal" in="SourceGraphic" in2="effect1_dropShadow_2112_674" result="shape"/>
</filter>
<filter id="filter1_d_2112_674" x="-6.64278" y="-7.16024" width="302.326" height="579.196" filterUnits="userSpaceOnUse" color-interpolation-filters="sRGB">
<feFlood flood-opacity="0" result="BackgroundImageFix"/>
<feColorMatrix in="SourceAlpha" type="matrix" values="0 0 0 0 0 0 0 0 0 0 0 0 0 0 0 0 0 0 127 0" result="hardAlpha"/>
<feOffset/>
<feGaussianBlur stdDeviation="9.7855"/>
<feColorMatrix type="matrix" values="0 0 0 0 0 0 0 0 0 0 0 0 0 0 0 0 0 0 0.2 0"/>
<feBlend mode="normal" in2="BackgroundImageFix" result="effect1_dropShadow_2112_674"/>
<feBlend mode="normal" in="SourceGraphic" in2="effect1_dropShadow_2112_674" result="shape"/>
</filter>
</defs>
</svg>
