<svg width="25" height="24" viewBox="0 0 25 24" fill="none" xmlns="http://www.w3.org/2000/svg">
<g clip-path="url(#clip0_2030_1578)">
<path fill-rule="evenodd" clip-rule="evenodd" d="M18.4033 16.8116C19.7306 15.2436 20.531 13.2153 20.531 11C20.531 6.02944 16.5016 2 11.531 2C6.56044 2 2.53101 6.02944 2.53101 11C2.53101 15.9706 6.56044 20 11.531 20C13.7463 20 15.7746 19.1996 17.3426 17.8723L20.0007 20.5303C20.2936 20.8232 20.7684 20.8232 21.0613 20.5303C21.3542 20.2374 21.3542 19.7626 21.0613 19.4697L18.4033 16.8116ZM19.031 11C19.031 15.1421 15.6731 18.5 11.531 18.5C7.38887 18.5 4.03101 15.1421 4.03101 11C4.03101 6.85786 7.38887 3.5 11.531 3.5C15.6731 3.5 19.031 6.85786 19.031 11Z" fill="white"/>
</g>
<defs>
<clipPath id="clip0_2030_1578">
<rect width="24" height="24" fill="white" transform="translate(0.531006)"/>
</clipPath>
</defs>
</svg>
