<svg width="15" height="15" viewBox="0 0 15 15" fill="none" xmlns="http://www.w3.org/2000/svg">
<path d="M12.4964 9.15391C11.9787 8.8477 11.3958 8.75895 10.8183 8.73829C10.3338 8.72096 9.61098 8.40291 9.61098 7.50004C9.61098 6.82735 10.1433 6.28596 10.8185 6.26181C11.396 6.24115 11.9789 6.15229 12.4964 5.84618C13.7817 5.08601 14.3487 3.49024 13.841 2.06159C13.3334 0.63294 11.8978 -0.216133 10.4363 0.0479038C8.97474 0.31194 7.90923 1.61286 7.90928 3.1332C7.90928 3.74018 8.12001 4.29875 8.38891 4.81681C8.61506 5.25253 8.72948 6.06124 7.95383 6.51998C7.37684 6.86124 6.65675 6.64516 6.29707 6.05546C5.99326 5.55739 5.6265 5.09071 5.11302 4.78696C3.82778 4.02679 2.19528 4.32167 1.24134 5.48631C0.287393 6.65094 0.287393 8.3491 1.24134 9.51374C2.19528 10.6784 3.82778 10.9732 5.11302 10.2131C5.62636 9.90944 5.99315 9.44307 6.29677 8.9453C6.5461 8.53655 7.16879 8.01552 7.95381 8.48017C8.52992 8.82116 8.70802 9.56827 8.38864 10.1837C8.11979 10.7016 7.90932 11.2601 7.90932 11.867C7.90932 13.3873 8.97484 14.6881 10.4364 14.9521C11.8979 15.2161 13.3334 14.367 13.841 12.9384C14.3486 11.5098 13.7817 9.91407 12.4964 9.15391Z" fill="#4F46BA"/>
</svg>
