<svg width="20" height="17" viewBox="0 0 20 17" fill="none" xmlns="http://www.w3.org/2000/svg">
<path d="M19.4582 5.50005L18.3745 1.18291C18.2416 0.652504 17.7626 0.280624 17.213 0.280624H2.58171C2.03209 0.280624 1.55312 0.652504 1.41901 1.18291L0.335344 5.50005C0.32337 5.54653 0.317383 5.5954 0.317383 5.64427C0.317383 7.28674 1.59264 8.62407 3.16126 8.62407C4.07249 8.62407 4.88554 8.17233 5.40642 7.47149C5.9273 8.17233 6.74035 8.62407 7.65158 8.62407C8.56282 8.62407 9.37587 8.17233 9.89675 7.47149C10.4176 8.17233 11.2295 8.62407 12.1419 8.62407C13.0543 8.62407 13.8662 8.17233 14.3871 7.47149C14.908 8.17233 15.7198 8.62407 16.6322 8.62407C18.2009 8.62407 19.4761 7.28674 19.4761 5.64427C19.4761 5.5954 19.4701 5.54653 19.4582 5.50005Z" fill="#1B1D4E"/>
<path d="M16.632 9.81599C15.8165 9.81599 15.0418 9.56807 14.3868 9.11514C13.0768 10.0222 11.2064 10.0222 9.89647 9.11514C8.58649 10.0222 6.71612 10.0222 5.40614 9.11514C4.75115 9.56807 3.97642 9.81599 3.16098 9.81599C2.57305 9.81599 2.01864 9.67892 1.51453 9.44531V15.7756C1.51453 16.4335 2.05097 16.9675 2.71195 16.9675H7.50163V12.1998H12.2913V16.9675H17.081C17.742 16.9675 18.2784 16.4335 18.2784 15.7756V9.44531C17.7743 9.67892 17.2199 9.81599 16.632 9.81599Z" fill="#1B1D4E"/>
</svg>
