<svg width="10" height="13" viewBox="0 0 10 13" fill="none" xmlns="http://www.w3.org/2000/svg">
<path d="M8.62762 6.5C9.27885 5.9702 9.6908 5.19553 9.6908 4.33333C9.6908 3.12343 8.88026 2.08551 7.73427 1.65601V0.722222C7.73427 0.323375 7.38391 0 6.95167 0C6.51942 0 6.16906 0.323375 6.16906 0.722222V1.44444H4.60384V0.722222C4.60384 0.323375 4.25348 0 3.82123 0C3.38899 0 3.03862 0.323375 3.03862 0.722222V1.44444L1.4734 1.44444C1.04116 1.44444 0.690796 1.76782 0.690796 2.16667C0.690796 2.56551 1.04116 2.88889 1.4734 2.88889H2.25601L2.25601 6.5L2.25601 10.1111H1.4734C1.04116 10.1111 0.690796 10.4345 0.690796 10.8333C0.690796 11.2322 1.04116 11.5556 1.4734 11.5556H3.03862L3.03862 12.2778C3.03862 12.6766 3.38899 13 3.82123 13C4.25348 13 4.60384 12.6766 4.60384 12.2778L4.60384 11.5556H6.16906V12.2778C6.16906 12.6766 6.51942 13 6.95167 13C7.38391 13 7.73427 12.6766 7.73427 12.2778V11.344C8.88026 10.9145 9.6908 9.87657 9.6908 8.66667C9.6908 7.80447 9.27885 7.0298 8.62762 6.5ZM3.82123 2.88889L6.56036 2.88889C7.42343 2.88889 8.12558 3.53686 8.12558 4.33333C8.12558 5.12981 7.42343 5.77778 6.56036 5.77778H3.82123L3.82123 2.88889ZM6.56036 10.1111H3.82123V7.22222H6.56036C7.42343 7.22222 8.12558 7.87019 8.12558 8.66667C8.12558 9.46314 7.42343 10.1111 6.56036 10.1111Z" fill="#4F46BA"/>
</svg>
