<svg width="30" height="30" viewBox="0 0 30 30" fill="none" xmlns="http://www.w3.org/2000/svg">
<path d="M15 0C11.0218 0 7.20644 1.58035 4.3934 4.3934C1.58035 7.20644 0 11.0218 0 15C0 18.9782 1.58035 22.7936 4.3934 25.6066C7.20644 28.4196 11.0218 30 15 30C18.9782 30 22.7936 28.4196 25.6066 25.6066C28.4196 22.7936 30 18.9782 30 15C30 11.0218 28.4196 7.20644 25.6066 4.3934C22.7936 1.58035 18.9782 0 15 0ZM20.3125 1.4C20.7125 1.4 21.125 1.4375 21.3875 1.525C18.675 2.0875 16.5125 4.6125 16.525 7.5C16.525 7.5625 16.525 7.6375 16.5375 7.7125C21.0875 8.825 23.125 11.5625 23.125 15.35C23.175 19.1375 20.175 23.3 15.1125 23.3125C11.025 23.325 6.7625 19.825 6.7375 14.2125C6.725 10.5 8.75 6.925 11.3 4.8125C13.8 2.7375 17.2125 1.4125 20.3125 1.4Z" fill="white"/>
</svg>
