<svg width="21" height="17" viewBox="0 0 21 17" fill="none" xmlns="http://www.w3.org/2000/svg">
<path d="M19.0396 0.358559C19.5918 0.358559 20.0396 0.806274 20.0396 1.35856L20.0396 15.0792C20.0396 15.6315 19.5918 16.0792 19.0396 16.0792H1.31733C0.765043 16.0792 0.317329 15.6315 0.317329 15.0792L0.317329 1.35856C0.317329 0.806274 0.765045 0.358559 1.31733 0.358559L19.0396 0.358559ZM8.83024 12.8201C8.83024 13.1377 9.08774 13.3952 9.40539 13.3952L16.768 13.3952C17.0857 13.3952 17.3432 13.1377 17.3432 12.8201C17.3432 12.5024 17.0857 12.2449 16.768 12.2449L9.40539 12.2449C9.08774 12.2449 8.83024 12.5024 8.83024 12.8201ZM8.83024 10.5195C8.83024 10.8371 9.08774 11.0946 9.40539 11.0946L16.768 11.0946C17.0857 11.0946 17.3432 10.8371 17.3432 10.5195C17.3432 10.2018 17.0857 9.94432 16.768 9.94432L9.40539 9.94432C9.08774 9.94432 8.83024 10.2018 8.83024 10.5195ZM8.83024 8.21888C8.83024 8.53653 9.08774 8.79403 9.40539 8.79403L16.768 8.79403C17.0857 8.79403 17.3432 8.53653 17.3432 8.21888C17.3432 7.90124 17.0857 7.64374 16.768 7.64374L9.40539 7.64374C9.08774 7.64374 8.83024 7.90124 8.83024 8.21888ZM8.83024 5.9183C8.83024 6.23595 9.08774 6.49345 9.40539 6.49345L16.768 6.49345C17.0857 6.49345 17.3432 6.23595 17.3432 5.9183C17.3432 5.60066 17.0857 5.34316 16.768 5.34316L9.40539 5.34316C9.08774 5.34316 8.83024 5.60066 8.83024 5.9183ZM3.01373 10.0946C3.01373 10.6469 3.46144 11.0946 4.01373 11.0946H6.63612C7.18841 11.0946 7.63612 10.6469 7.63612 10.0946L7.63612 6.34315C7.63612 5.79087 7.18841 5.34316 6.63612 5.34316H4.01373C3.46144 5.34316 3.01373 5.79087 3.01373 6.34316V10.0946ZM1.47293 2.084C1.47293 2.40164 1.73043 2.65914 2.04807 2.65914L18.3088 2.65914C18.6265 2.65914 18.884 2.40164 18.884 2.084C18.884 1.76635 18.6265 1.50885 18.3088 1.50885L2.04807 1.50885C1.73043 1.50885 1.47293 1.76635 1.47293 2.084Z" fill="#1B1D4E"/>
</svg>
