<svg width="31" height="31" viewBox="0 0 31 31" fill="none" xmlns="http://www.w3.org/2000/svg">
<path d="M15.1909 0.202667C11.2127 0.202667 7.39736 1.78302 4.58432 4.59607C1.77127 7.40911 0.190918 11.2244 0.190918 15.2027C0.190918 19.1809 1.77127 22.9962 4.58432 25.8093C7.39736 28.6223 11.2127 30.2027 15.1909 30.2027C19.1692 30.2027 22.9845 28.6223 25.7975 25.8093C28.6106 22.9962 30.1909 19.1809 30.1909 15.2027C30.1909 11.2244 28.6106 7.40911 25.7975 4.59607C22.9845 1.78302 19.1692 0.202667 15.1909 0.202667ZM20.5034 1.60267C20.9034 1.60267 21.3159 1.64017 21.5784 1.72767C18.8659 2.29017 16.7034 4.81517 16.7159 7.70267C16.7159 7.76517 16.7159 7.84017 16.7284 7.91517C21.2784 9.02767 23.3159 11.7652 23.3159 15.5527C23.3659 19.3402 20.3659 23.5027 15.3034 23.5152C11.2159 23.5277 6.95342 20.0277 6.92842 14.4152C6.91592 10.7027 8.94092 7.12767 11.4909 5.01517C13.9909 2.94017 17.4034 1.61517 20.5034 1.60267Z" fill="white"/>
</svg>
