<svg width="21" height="20" viewBox="0 0 21 20" fill="none" xmlns="http://www.w3.org/2000/svg">
<path d="M14.5443 12.7063C14.6608 11.814 14.6608 10.9216 14.6608 10.0293C14.6608 9.13693 14.616 8.24458 14.5443 7.35223H19.6541C20.1681 9.10026 20.1681 10.9583 19.6541 12.7063H14.5443ZM12.5362 5.56754C11.9714 2.07846 10.8508 0.213455 10.1785 0.213455C9.50615 0.213455 8.38557 2.07846 7.8208 5.56754H12.5362ZM7.8208 14.491C8.3766 17.9801 9.50615 19.8451 10.1785 19.8451C10.8508 19.8451 11.9714 17.9801 12.5362 14.491H7.8208ZM12.7514 7.35223H7.60564C7.53393 8.18212 7.4891 9.06554 7.4891 10.0293C7.4891 10.993 7.53393 11.8764 7.60564 12.7063H12.7514C12.8231 11.8764 12.8679 10.993 12.8679 10.0293C12.8679 9.06554 12.8679 8.18212 12.7514 7.35223ZM5.69618 10.0293C5.69618 9.13693 5.69618 8.24458 5.81272 7.35223H0.702867C0.188888 9.10026 0.188888 10.9583 0.702867 12.7063H5.81272C5.741 11.814 5.69618 10.9216 5.69618 10.0293ZM6.0189 14.491H1.40211C2.02033 15.6896 2.8798 16.7486 3.92701 17.6022C4.97422 18.4557 6.18675 19.0856 7.4891 19.4525C6.73805 17.8866 6.24179 16.2119 6.0189 14.491ZM14.3381 14.491C14.1152 16.2119 13.6189 17.8866 12.8679 19.4525C14.1702 19.0856 15.3828 18.4557 16.43 17.6022C17.4772 16.7486 18.3367 15.6896 18.9549 14.491H14.3381ZM14.3381 5.56754H18.9549C18.3367 4.369 17.4772 3.30997 16.43 2.4564C15.3828 1.60283 14.1702 0.972984 12.8679 0.606088C13.6189 2.17192 14.1152 3.84663 14.3381 5.56754ZM6.0189 5.56754C6.24179 3.84663 6.73805 2.17192 7.4891 0.606088C6.18675 0.972984 4.97422 1.60283 3.92701 2.4564C2.8798 3.30997 2.02033 4.369 1.40211 5.56754H6.0189Z" fill="#1B1D4E"/>
</svg>
