<svg width="21" height="18" viewBox="0 0 21 18" fill="none" xmlns="http://www.w3.org/2000/svg">
<path d="M15.132 5.92916H20.59V3.40672C20.59 1.80186 19.2784 0.496216 17.6661 0.496216H3.24132C1.62905 0.496216 0.317383 1.80186 0.317383 3.40672V14.2726C0.317383 15.8775 1.62905 17.1831 3.24132 17.1831H17.6661C19.2784 17.1831 20.59 15.8775 20.59 14.2726V11.7502H15.132C13.5197 11.7502 12.2081 10.4445 12.2081 8.83967C12.2081 7.2348 13.5197 5.92916 15.132 5.92916Z" fill="#1B1D4E"/>
<path d="M15.1319 7.09341C14.1646 7.09341 13.3776 7.87679 13.3776 8.83973C13.3776 9.80267 14.1646 10.5861 15.1319 10.5861H20.59V7.09345H15.1319V7.09341ZM15.9116 9.42183H15.1319C14.809 9.42183 14.5472 9.16119 14.5472 8.83973C14.5472 8.51828 14.809 8.25764 15.1319 8.25764H15.9116C16.2346 8.25764 16.4964 8.51828 16.4964 8.83973C16.4964 9.16119 16.2346 9.42183 15.9116 9.42183Z" fill="#1B1D4E"/>
</svg>
